<svg width="40" height="40" viewBox="0 0 40 40" fill="none" xmlns="http://www.w3.org/2000/svg">
<path d="M20.0003 25.0001C21.3892 25.0001 22.5698 24.514 23.542 23.5417C24.5142 22.5695 25.0003 21.389 25.0003 20.0001C25.0003 18.6112 24.5142 17.4306 23.542 16.4584C22.5698 15.4862 21.3892 15.0001 20.0003 15.0001C18.6114 15.0001 17.4309 15.4862 16.4587 16.4584C15.4864 17.4306 15.0003 18.6112 15.0003 20.0001C15.0003 21.389 15.4864 22.5695 16.4587 23.5417C17.4309 24.514 18.6114 25.0001 20.0003 25.0001ZM20.0003 28.3334C17.6948 28.3334 15.7295 27.5209 14.1045 25.8959C12.4795 24.2709 11.667 22.3056 11.667 20.0001C11.667 17.6945 12.4795 15.7292 14.1045 14.1042C15.7295 12.4792 17.6948 11.6667 20.0003 11.6667C22.3059 11.6667 24.2712 12.4792 25.8962 14.1042C27.5212 15.7292 28.3337 17.6945 28.3337 20.0001C28.3337 22.3056 27.5212 24.2709 25.8962 25.8959C24.2712 27.5209 22.3059 28.3334 20.0003 28.3334ZM8.33366 21.6667H1.66699V18.3334H8.33366V21.6667ZM38.3337 21.6667H31.667V18.3334H38.3337V21.6667ZM18.3337 8.33341V1.66675H21.667V8.33341H18.3337ZM18.3337 38.3334V31.6667H21.667V38.3334H18.3337ZM10.667 12.9167L6.45866 8.87508L8.83366 6.41675L12.8337 10.5834L10.667 12.9167ZM31.167 33.5834L27.1253 29.3751L29.3337 27.0834L33.542 31.1251L31.167 33.5834ZM27.0837 10.6667L31.1253 6.45841L33.5837 8.83341L29.417 12.8334L27.0837 10.6667ZM6.41699 31.1667L10.6253 27.1251L12.917 29.3334L8.87533 33.5417L6.41699 31.1667Z" fill="#FEF7FF"/>
</svg>
